<mxfile host="app.diagrams.net" agent="Mozilla/5.0 (Windows NT 10.0; Win64; x64) AppleWebKit/537.36 (KHTML, like Gecko) Chrome/135.0.0.0 Safari/537.36" version="26.2.14">
  <diagram name="Page-1" id="PRJzh4tpTMb9JkEempDs">
    <mxGraphModel dx="2130" dy="1929" grid="1" gridSize="10" guides="1" tooltips="1" connect="1" arrows="1" fold="1" page="1" pageScale="1" pageWidth="827" pageHeight="1169" math="0" shadow="0">
      <root>
        <mxCell id="0" />
        <mxCell id="1" parent="0" />
        <mxCell id="48mbSu4fNR1BJDRWVZsh-1" value="User" style="whiteSpace=wrap;html=1;align=center;" parent="1" vertex="1">
          <mxGeometry x="414" y="-630" width="100" height="40" as="geometry" />
        </mxCell>
        <mxCell id="48mbSu4fNR1BJDRWVZsh-2" value="UserID" style="ellipse;whiteSpace=wrap;html=1;align=center;fontStyle=4;" parent="1" vertex="1">
          <mxGeometry x="318" y="-700" width="100" height="40" as="geometry" />
        </mxCell>
        <mxCell id="48mbSu4fNR1BJDRWVZsh-3" value="" style="endArrow=none;html=1;rounded=0;exitX=0;exitY=0;exitDx=0;exitDy=0;entryX=0.5;entryY=1;entryDx=0;entryDy=0;" parent="1" source="48mbSu4fNR1BJDRWVZsh-1" target="48mbSu4fNR1BJDRWVZsh-2" edge="1">
          <mxGeometry width="50" height="50" relative="1" as="geometry">
            <mxPoint x="464" y="-640" as="sourcePoint" />
            <mxPoint x="374" y="-660" as="targetPoint" />
          </mxGeometry>
        </mxCell>
        <mxCell id="48mbSu4fNR1BJDRWVZsh-4" value="Name" style="ellipse;whiteSpace=wrap;html=1;align=center;" parent="1" vertex="1">
          <mxGeometry x="514" y="-700" width="100" height="40" as="geometry" />
        </mxCell>
        <mxCell id="48mbSu4fNR1BJDRWVZsh-6" value="Password" style="ellipse;whiteSpace=wrap;html=1;align=center;" parent="1" vertex="1">
          <mxGeometry x="280" y="-630" width="100" height="40" as="geometry" />
        </mxCell>
        <mxCell id="48mbSu4fNR1BJDRWVZsh-7" value="Email" style="ellipse;whiteSpace=wrap;html=1;align=center;" parent="1" vertex="1">
          <mxGeometry x="414" y="-740" width="100" height="40" as="geometry" />
        </mxCell>
        <mxCell id="48mbSu4fNR1BJDRWVZsh-8" value="" style="endArrow=none;html=1;rounded=0;entryX=0;entryY=0.5;entryDx=0;entryDy=0;exitX=1;exitY=0.5;exitDx=0;exitDy=0;" parent="1" source="48mbSu4fNR1BJDRWVZsh-6" target="48mbSu4fNR1BJDRWVZsh-1" edge="1">
          <mxGeometry width="50" height="50" relative="1" as="geometry">
            <mxPoint x="478" y="-490" as="sourcePoint" />
            <mxPoint x="528" y="-540" as="targetPoint" />
          </mxGeometry>
        </mxCell>
        <mxCell id="48mbSu4fNR1BJDRWVZsh-9" value="" style="endArrow=none;html=1;rounded=0;entryX=1;entryY=0;entryDx=0;entryDy=0;exitX=0.5;exitY=1;exitDx=0;exitDy=0;" parent="1" source="48mbSu4fNR1BJDRWVZsh-4" target="48mbSu4fNR1BJDRWVZsh-1" edge="1">
          <mxGeometry width="50" height="50" relative="1" as="geometry">
            <mxPoint x="488" y="-510" as="sourcePoint" />
            <mxPoint x="538" y="-560" as="targetPoint" />
          </mxGeometry>
        </mxCell>
        <mxCell id="48mbSu4fNR1BJDRWVZsh-10" value="" style="endArrow=none;html=1;rounded=0;entryX=0.5;entryY=1;entryDx=0;entryDy=0;exitX=0.5;exitY=0;exitDx=0;exitDy=0;" parent="1" source="48mbSu4fNR1BJDRWVZsh-1" target="48mbSu4fNR1BJDRWVZsh-7" edge="1">
          <mxGeometry width="50" height="50" relative="1" as="geometry">
            <mxPoint x="438" y="-650" as="sourcePoint" />
            <mxPoint x="488" y="-700" as="targetPoint" />
          </mxGeometry>
        </mxCell>
        <mxCell id="48mbSu4fNR1BJDRWVZsh-11" value="Role" style="ellipse;shape=doubleEllipse;margin=3;whiteSpace=wrap;html=1;align=center;" parent="1" vertex="1">
          <mxGeometry x="550" y="-630" width="100" height="40" as="geometry" />
        </mxCell>
        <mxCell id="48mbSu4fNR1BJDRWVZsh-12" value="" style="endArrow=none;html=1;rounded=0;entryX=1;entryY=0.5;entryDx=0;entryDy=0;exitX=0;exitY=0.5;exitDx=0;exitDy=0;" parent="1" source="48mbSu4fNR1BJDRWVZsh-11" target="48mbSu4fNR1BJDRWVZsh-1" edge="1">
          <mxGeometry width="50" height="50" relative="1" as="geometry">
            <mxPoint x="658" y="-510" as="sourcePoint" />
            <mxPoint x="708" y="-560" as="targetPoint" />
          </mxGeometry>
        </mxCell>
        <mxCell id="48mbSu4fNR1BJDRWVZsh-13" value="Travel&lt;span style=&quot;background-color: transparent; color: light-dark(rgb(0, 0, 0), rgb(255, 255, 255));&quot;&gt;er&lt;/span&gt;" style="whiteSpace=wrap;html=1;align=center;" parent="1" vertex="1">
          <mxGeometry x="10" y="-330" width="100" height="40" as="geometry" />
        </mxCell>
        <mxCell id="48mbSu4fNR1BJDRWVZsh-18" value="" style="endArrow=none;html=1;rounded=0;entryX=0;entryY=0.5;entryDx=0;entryDy=0;exitX=1;exitY=0.5;exitDx=0;exitDy=0;" parent="1" source="48mbSu4fNR1BJDRWVZsh-22" target="48mbSu4fNR1BJDRWVZsh-13" edge="1">
          <mxGeometry width="50" height="50" relative="1" as="geometry">
            <mxPoint x="-50" y="-310" as="sourcePoint" />
            <mxPoint x="-50" y="-280" as="targetPoint" />
          </mxGeometry>
        </mxCell>
        <mxCell id="48mbSu4fNR1BJDRWVZsh-19" value="Gender" style="ellipse;whiteSpace=wrap;html=1;align=center;" parent="1" vertex="1">
          <mxGeometry x="-140" y="-279" width="100" height="40" as="geometry" />
        </mxCell>
        <mxCell id="48mbSu4fNR1BJDRWVZsh-20" value="" style="endArrow=none;html=1;rounded=0;entryX=0;entryY=1;entryDx=0;entryDy=0;exitX=0.5;exitY=0;exitDx=0;exitDy=0;" parent="1" source="48mbSu4fNR1BJDRWVZsh-19" target="48mbSu4fNR1BJDRWVZsh-13" edge="1">
          <mxGeometry width="50" height="50" relative="1" as="geometry">
            <mxPoint x="80" y="-180" as="sourcePoint" />
            <mxPoint x="130" y="-230" as="targetPoint" />
          </mxGeometry>
        </mxCell>
        <mxCell id="48mbSu4fNR1BJDRWVZsh-22" value="Age" style="ellipse;whiteSpace=wrap;html=1;align=center;dashed=1;" parent="1" vertex="1">
          <mxGeometry x="-160" y="-330" width="100" height="40" as="geometry" />
        </mxCell>
        <mxCell id="48mbSu4fNR1BJDRWVZsh-23" value="Nationality" style="ellipse;whiteSpace=wrap;html=1;align=center;" parent="1" vertex="1">
          <mxGeometry x="-140" y="-380" width="100" height="40" as="geometry" />
        </mxCell>
        <mxCell id="48mbSu4fNR1BJDRWVZsh-25" value="" style="endArrow=none;html=1;rounded=0;entryX=0;entryY=0;entryDx=0;entryDy=0;exitX=0.5;exitY=1;exitDx=0;exitDy=0;" parent="1" source="48mbSu4fNR1BJDRWVZsh-23" target="48mbSu4fNR1BJDRWVZsh-13" edge="1">
          <mxGeometry width="50" height="50" relative="1" as="geometry">
            <mxPoint x="120" y="-210" as="sourcePoint" />
            <mxPoint x="170" y="-260" as="targetPoint" />
          </mxGeometry>
        </mxCell>
        <mxCell id="48mbSu4fNR1BJDRWVZsh-29" value="Operator" style="whiteSpace=wrap;html=1;align=center;" parent="1" vertex="1">
          <mxGeometry x="258" y="-330" width="100" height="40" as="geometry" />
        </mxCell>
        <mxCell id="48mbSu4fNR1BJDRWVZsh-30" value="CompanyName" style="ellipse;whiteSpace=wrap;html=1;align=center;" parent="1" vertex="1">
          <mxGeometry x="354" y="-380" width="100" height="40" as="geometry" />
        </mxCell>
        <mxCell id="48mbSu4fNR1BJDRWVZsh-31" value="" style="endArrow=none;html=1;rounded=0;entryX=0.5;entryY=1;entryDx=0;entryDy=0;exitX=1;exitY=0;exitDx=0;exitDy=0;" parent="1" source="48mbSu4fNR1BJDRWVZsh-29" target="48mbSu4fNR1BJDRWVZsh-30" edge="1">
          <mxGeometry width="50" height="50" relative="1" as="geometry">
            <mxPoint x="358" y="-310" as="sourcePoint" />
            <mxPoint x="374" y="-260" as="targetPoint" />
          </mxGeometry>
        </mxCell>
        <mxCell id="48mbSu4fNR1BJDRWVZsh-32" value="LicenseNumber" style="ellipse;whiteSpace=wrap;html=1;align=center;" parent="1" vertex="1">
          <mxGeometry x="190" y="-380" width="100" height="40" as="geometry" />
        </mxCell>
        <mxCell id="48mbSu4fNR1BJDRWVZsh-33" value="" style="endArrow=none;html=1;rounded=0;entryX=0;entryY=0;entryDx=0;entryDy=0;exitX=0.5;exitY=1;exitDx=0;exitDy=0;" parent="1" source="48mbSu4fNR1BJDRWVZsh-32" target="48mbSu4fNR1BJDRWVZsh-29" edge="1">
          <mxGeometry width="50" height="50" relative="1" as="geometry">
            <mxPoint x="234" y="-210" as="sourcePoint" />
            <mxPoint x="284" y="-260" as="targetPoint" />
          </mxGeometry>
        </mxCell>
        <mxCell id="48mbSu4fNR1BJDRWVZsh-34" value="Description" style="ellipse;whiteSpace=wrap;html=1;align=center;" parent="1" vertex="1">
          <mxGeometry x="124" y="-330" width="100" height="40" as="geometry" />
        </mxCell>
        <mxCell id="48mbSu4fNR1BJDRWVZsh-35" value="" style="endArrow=none;html=1;rounded=0;entryX=0;entryY=0.5;entryDx=0;entryDy=0;exitX=1;exitY=0.5;exitDx=0;exitDy=0;" parent="1" source="48mbSu4fNR1BJDRWVZsh-34" target="48mbSu4fNR1BJDRWVZsh-29" edge="1">
          <mxGeometry width="50" height="50" relative="1" as="geometry">
            <mxPoint x="294" y="-190" as="sourcePoint" />
            <mxPoint x="344" y="-240" as="targetPoint" />
          </mxGeometry>
        </mxCell>
        <mxCell id="48mbSu4fNR1BJDRWVZsh-39" value="ServiceProvider" style="whiteSpace=wrap;html=1;align=center;" parent="1" vertex="1">
          <mxGeometry x="810" y="-330" width="130" height="40" as="geometry" />
        </mxCell>
        <mxCell id="48mbSu4fNR1BJDRWVZsh-42" value="Type" style="ellipse;whiteSpace=wrap;html=1;align=center;" parent="1" vertex="1">
          <mxGeometry x="990" y="-330" width="100" height="40" as="geometry" />
        </mxCell>
        <mxCell id="48mbSu4fNR1BJDRWVZsh-44" value="" style="endArrow=none;html=1;rounded=0;entryX=1;entryY=0.5;entryDx=0;entryDy=0;exitX=0;exitY=0.5;exitDx=0;exitDy=0;" parent="1" source="48mbSu4fNR1BJDRWVZsh-42" target="48mbSu4fNR1BJDRWVZsh-39" edge="1">
          <mxGeometry width="50" height="50" relative="1" as="geometry">
            <mxPoint x="790" y="-120" as="sourcePoint" />
            <mxPoint x="840" y="-170" as="targetPoint" />
          </mxGeometry>
        </mxCell>
        <mxCell id="48mbSu4fNR1BJDRWVZsh-45" value="ContactInfo" style="ellipse;whiteSpace=wrap;html=1;align=center;" parent="1" vertex="1">
          <mxGeometry x="936" y="-390" width="100" height="40" as="geometry" />
        </mxCell>
        <mxCell id="48mbSu4fNR1BJDRWVZsh-46" value="" style="endArrow=none;html=1;rounded=0;entryX=1;entryY=0;entryDx=0;entryDy=0;exitX=0.5;exitY=1;exitDx=0;exitDy=0;" parent="1" source="48mbSu4fNR1BJDRWVZsh-45" target="48mbSu4fNR1BJDRWVZsh-39" edge="1">
          <mxGeometry width="50" height="50" relative="1" as="geometry">
            <mxPoint x="760" y="-40" as="sourcePoint" />
            <mxPoint x="810" y="-90" as="targetPoint" />
          </mxGeometry>
        </mxCell>
        <mxCell id="48mbSu4fNR1BJDRWVZsh-47" value="BusinessName" style="ellipse;whiteSpace=wrap;html=1;align=center;" parent="1" vertex="1">
          <mxGeometry x="936" y="-270" width="100" height="40" as="geometry" />
        </mxCell>
        <mxCell id="48mbSu4fNR1BJDRWVZsh-49" value="" style="endArrow=none;html=1;rounded=0;entryX=0.5;entryY=0;entryDx=0;entryDy=0;exitX=1;exitY=1;exitDx=0;exitDy=0;" parent="1" source="48mbSu4fNR1BJDRWVZsh-39" target="48mbSu4fNR1BJDRWVZsh-47" edge="1">
          <mxGeometry width="50" height="50" relative="1" as="geometry">
            <mxPoint x="850" y="-80" as="sourcePoint" />
            <mxPoint x="900" y="-130" as="targetPoint" />
          </mxGeometry>
        </mxCell>
        <mxCell id="48mbSu4fNR1BJDRWVZsh-50" value="Admin" style="whiteSpace=wrap;html=1;align=center;" parent="1" vertex="1">
          <mxGeometry x="560" y="-330" width="100" height="40" as="geometry" />
        </mxCell>
        <mxCell id="48mbSu4fNR1BJDRWVZsh-51" value="AssignedRegion" style="ellipse;whiteSpace=wrap;html=1;align=center;" parent="1" vertex="1">
          <mxGeometry x="640" y="-380" width="100" height="40" as="geometry" />
        </mxCell>
        <mxCell id="48mbSu4fNR1BJDRWVZsh-53" value="" style="endArrow=none;html=1;rounded=0;entryX=0.5;entryY=1;entryDx=0;entryDy=0;exitX=1;exitY=0;exitDx=0;exitDy=0;" parent="1" source="48mbSu4fNR1BJDRWVZsh-50" target="48mbSu4fNR1BJDRWVZsh-51" edge="1">
          <mxGeometry width="50" height="50" relative="1" as="geometry">
            <mxPoint x="665" y="-300" as="sourcePoint" />
            <mxPoint x="715" y="-350" as="targetPoint" />
          </mxGeometry>
        </mxCell>
        <mxCell id="48mbSu4fNR1BJDRWVZsh-55" value="Trip" style="whiteSpace=wrap;html=1;align=center;" parent="1" vertex="1">
          <mxGeometry x="-161" y="-73" width="100" height="40" as="geometry" />
        </mxCell>
        <mxCell id="48mbSu4fNR1BJDRWVZsh-56" value="TripID" style="ellipse;whiteSpace=wrap;html=1;align=center;fontStyle=4;" parent="1" vertex="1">
          <mxGeometry x="-225" y="57" width="100" height="40" as="geometry" />
        </mxCell>
        <mxCell id="48mbSu4fNR1BJDRWVZsh-57" value="" style="endArrow=none;html=1;rounded=0;entryX=0.5;entryY=0;entryDx=0;entryDy=0;exitX=0.25;exitY=1;exitDx=0;exitDy=0;" parent="1" source="48mbSu4fNR1BJDRWVZsh-55" target="48mbSu4fNR1BJDRWVZsh-56" edge="1">
          <mxGeometry width="50" height="50" relative="1" as="geometry">
            <mxPoint x="-275" y="-43" as="sourcePoint" />
            <mxPoint x="-225" y="-93" as="targetPoint" />
          </mxGeometry>
        </mxCell>
        <mxCell id="48mbSu4fNR1BJDRWVZsh-58" value="Duration" style="ellipse;whiteSpace=wrap;html=1;align=center;" parent="1" vertex="1">
          <mxGeometry x="-295" y="-73" width="100" height="40" as="geometry" />
        </mxCell>
        <mxCell id="48mbSu4fNR1BJDRWVZsh-59" value="" style="endArrow=none;html=1;rounded=0;entryX=0;entryY=0.5;entryDx=0;entryDy=0;exitX=1;exitY=0.5;exitDx=0;exitDy=0;" parent="1" source="48mbSu4fNR1BJDRWVZsh-58" target="48mbSu4fNR1BJDRWVZsh-55" edge="1">
          <mxGeometry width="50" height="50" relative="1" as="geometry">
            <mxPoint x="-225" y="77" as="sourcePoint" />
            <mxPoint x="-175" y="27" as="targetPoint" />
          </mxGeometry>
        </mxCell>
        <mxCell id="48mbSu4fNR1BJDRWVZsh-60" value="Description" style="ellipse;whiteSpace=wrap;html=1;align=center;" parent="1" vertex="1">
          <mxGeometry x="-285" y="17" width="100" height="40" as="geometry" />
        </mxCell>
        <mxCell id="48mbSu4fNR1BJDRWVZsh-61" value="" style="endArrow=none;html=1;rounded=0;entryX=0;entryY=1;entryDx=0;entryDy=0;exitX=0.5;exitY=0;exitDx=0;exitDy=0;" parent="1" source="48mbSu4fNR1BJDRWVZsh-60" target="48mbSu4fNR1BJDRWVZsh-55" edge="1">
          <mxGeometry width="50" height="50" relative="1" as="geometry">
            <mxPoint x="-85" y="57" as="sourcePoint" />
            <mxPoint x="-35" y="7" as="targetPoint" />
          </mxGeometry>
        </mxCell>
        <mxCell id="48mbSu4fNR1BJDRWVZsh-62" value="PricePerPerson" style="ellipse;whiteSpace=wrap;html=1;align=center;" parent="1" vertex="1">
          <mxGeometry x="-285" y="-133" width="100" height="40" as="geometry" />
        </mxCell>
        <mxCell id="48mbSu4fNR1BJDRWVZsh-63" value="" style="endArrow=none;html=1;rounded=0;entryX=0.5;entryY=1;entryDx=0;entryDy=0;exitX=0;exitY=0;exitDx=0;exitDy=0;" parent="1" source="48mbSu4fNR1BJDRWVZsh-55" target="48mbSu4fNR1BJDRWVZsh-62" edge="1">
          <mxGeometry width="50" height="50" relative="1" as="geometry">
            <mxPoint x="-85" y="107" as="sourcePoint" />
            <mxPoint x="-35" y="57" as="targetPoint" />
          </mxGeometry>
        </mxCell>
        <mxCell id="48mbSu4fNR1BJDRWVZsh-64" value="Capacity" style="ellipse;whiteSpace=wrap;html=1;align=center;" parent="1" vertex="1">
          <mxGeometry x="-225" y="-180" width="100" height="40" as="geometry" />
        </mxCell>
        <mxCell id="48mbSu4fNR1BJDRWVZsh-65" value="" style="endArrow=none;html=1;rounded=0;entryX=0.25;entryY=0;entryDx=0;entryDy=0;exitX=0.5;exitY=1;exitDx=0;exitDy=0;" parent="1" source="48mbSu4fNR1BJDRWVZsh-64" target="48mbSu4fNR1BJDRWVZsh-55" edge="1">
          <mxGeometry width="50" height="50" relative="1" as="geometry">
            <mxPoint x="-155" y="147" as="sourcePoint" />
            <mxPoint x="-105" y="97" as="targetPoint" />
          </mxGeometry>
        </mxCell>
        <mxCell id="48mbSu4fNR1BJDRWVZsh-80" value="Destination" style="whiteSpace=wrap;html=1;align=center;" parent="1" vertex="1">
          <mxGeometry x="-145" y="170" width="100" height="40" as="geometry" />
        </mxCell>
        <mxCell id="48mbSu4fNR1BJDRWVZsh-81" value="DestinationID" style="ellipse;whiteSpace=wrap;html=1;align=center;fontStyle=4;" parent="1" vertex="1">
          <mxGeometry x="-90" y="290" width="100" height="40" as="geometry" />
        </mxCell>
        <mxCell id="48mbSu4fNR1BJDRWVZsh-82" value="Country" style="ellipse;whiteSpace=wrap;html=1;align=center;" parent="1" vertex="1">
          <mxGeometry x="-45" y="235" width="100" height="40" as="geometry" />
        </mxCell>
        <mxCell id="48mbSu4fNR1BJDRWVZsh-83" value="Name" style="ellipse;whiteSpace=wrap;html=1;align=center;" parent="1" vertex="1">
          <mxGeometry x="-200" y="290" width="100" height="40" as="geometry" />
        </mxCell>
        <mxCell id="48mbSu4fNR1BJDRWVZsh-84" value="Region" style="ellipse;whiteSpace=wrap;html=1;align=center;" parent="1" vertex="1">
          <mxGeometry x="-245" y="235" width="100" height="40" as="geometry" />
        </mxCell>
        <mxCell id="48mbSu4fNR1BJDRWVZsh-85" value="" style="endArrow=none;html=1;rounded=0;entryX=0.25;entryY=1;entryDx=0;entryDy=0;exitX=0.5;exitY=0;exitDx=0;exitDy=0;" parent="1" source="48mbSu4fNR1BJDRWVZsh-83" target="48mbSu4fNR1BJDRWVZsh-80" edge="1">
          <mxGeometry width="50" height="50" relative="1" as="geometry">
            <mxPoint x="-110" y="290" as="sourcePoint" />
            <mxPoint x="-185" y="175" as="targetPoint" />
          </mxGeometry>
        </mxCell>
        <mxCell id="48mbSu4fNR1BJDRWVZsh-86" value="" style="endArrow=none;html=1;rounded=0;entryX=0.75;entryY=1;entryDx=0;entryDy=0;exitX=0.5;exitY=0;exitDx=0;exitDy=0;" parent="1" source="48mbSu4fNR1BJDRWVZsh-81" target="48mbSu4fNR1BJDRWVZsh-80" edge="1">
          <mxGeometry width="50" height="50" relative="1" as="geometry">
            <mxPoint x="-30" y="410" as="sourcePoint" />
            <mxPoint x="-55" y="55" as="targetPoint" />
          </mxGeometry>
        </mxCell>
        <mxCell id="48mbSu4fNR1BJDRWVZsh-87" value="" style="endArrow=none;html=1;rounded=0;entryX=0;entryY=1;entryDx=0;entryDy=0;exitX=0.5;exitY=0;exitDx=0;exitDy=0;" parent="1" source="48mbSu4fNR1BJDRWVZsh-84" target="48mbSu4fNR1BJDRWVZsh-80" edge="1">
          <mxGeometry width="50" height="50" relative="1" as="geometry">
            <mxPoint x="-165" y="335" as="sourcePoint" />
            <mxPoint x="-115" y="285" as="targetPoint" />
          </mxGeometry>
        </mxCell>
        <mxCell id="48mbSu4fNR1BJDRWVZsh-88" value="" style="endArrow=none;html=1;rounded=0;entryX=1;entryY=1;entryDx=0;entryDy=0;exitX=0.5;exitY=0;exitDx=0;exitDy=0;" parent="1" source="48mbSu4fNR1BJDRWVZsh-82" target="48mbSu4fNR1BJDRWVZsh-80" edge="1">
          <mxGeometry width="50" height="50" relative="1" as="geometry">
            <mxPoint x="-95" y="345" as="sourcePoint" />
            <mxPoint x="-45" y="295" as="targetPoint" />
          </mxGeometry>
        </mxCell>
        <mxCell id="48mbSu4fNR1BJDRWVZsh-100" value="Booking" style="whiteSpace=wrap;html=1;align=center;" parent="1" vertex="1">
          <mxGeometry x="413" y="89" width="100" height="40" as="geometry" />
        </mxCell>
        <mxCell id="48mbSu4fNR1BJDRWVZsh-101" value="BookingID" style="ellipse;whiteSpace=wrap;html=1;align=center;fontStyle=4;" parent="1" vertex="1">
          <mxGeometry x="290" y="129" width="100" height="40" as="geometry" />
        </mxCell>
        <mxCell id="48mbSu4fNR1BJDRWVZsh-104" value="BookingDate" style="ellipse;whiteSpace=wrap;html=1;align=center;" parent="1" vertex="1">
          <mxGeometry x="267" y="80" width="101" height="40" as="geometry" />
        </mxCell>
        <mxCell id="48mbSu4fNR1BJDRWVZsh-105" value="TotalAmount" style="ellipse;whiteSpace=wrap;html=1;align=center;" parent="1" vertex="1">
          <mxGeometry x="530" y="14" width="100" height="40" as="geometry" />
        </mxCell>
        <mxCell id="48mbSu4fNR1BJDRWVZsh-106" value="Status" style="ellipse;whiteSpace=wrap;html=1;align=center;" parent="1" vertex="1">
          <mxGeometry x="574" y="115.5" width="100" height="40" as="geometry" />
        </mxCell>
        <mxCell id="48mbSu4fNR1BJDRWVZsh-107" value="" style="endArrow=none;html=1;rounded=0;exitX=0;exitY=1;exitDx=0;exitDy=0;entryX=1;entryY=0.5;entryDx=0;entryDy=0;" parent="1" source="48mbSu4fNR1BJDRWVZsh-100" target="48mbSu4fNR1BJDRWVZsh-101" edge="1">
          <mxGeometry width="50" height="50" relative="1" as="geometry">
            <mxPoint x="589" y="59" as="sourcePoint" />
            <mxPoint x="639" y="9" as="targetPoint" />
          </mxGeometry>
        </mxCell>
        <mxCell id="48mbSu4fNR1BJDRWVZsh-109" value="" style="endArrow=none;html=1;rounded=0;entryX=1;entryY=0.5;entryDx=0;entryDy=0;exitX=0;exitY=0.5;exitDx=0;exitDy=0;" parent="1" source="XrSpKoa4lkCXWR-hULQA-1" target="48mbSu4fNR1BJDRWVZsh-100" edge="1">
          <mxGeometry width="50" height="50" relative="1" as="geometry">
            <mxPoint x="349" y="149" as="sourcePoint" />
            <mxPoint x="479" y="139" as="targetPoint" />
          </mxGeometry>
        </mxCell>
        <mxCell id="48mbSu4fNR1BJDRWVZsh-110" value="" style="endArrow=none;html=1;rounded=0;exitX=0;exitY=0.5;exitDx=0;exitDy=0;entryX=1;entryY=0.5;entryDx=0;entryDy=0;" parent="1" source="48mbSu4fNR1BJDRWVZsh-100" target="48mbSu4fNR1BJDRWVZsh-104" edge="1">
          <mxGeometry width="50" height="50" relative="1" as="geometry">
            <mxPoint x="419" y="-1" as="sourcePoint" />
            <mxPoint x="469" y="-51" as="targetPoint" />
          </mxGeometry>
        </mxCell>
        <mxCell id="48mbSu4fNR1BJDRWVZsh-111" value="" style="endArrow=none;html=1;rounded=0;entryX=1;entryY=1;entryDx=0;entryDy=0;exitX=0;exitY=0.5;exitDx=0;exitDy=0;" parent="1" source="48mbSu4fNR1BJDRWVZsh-106" target="48mbSu4fNR1BJDRWVZsh-100" edge="1">
          <mxGeometry width="50" height="50" relative="1" as="geometry">
            <mxPoint x="539" y="199" as="sourcePoint" />
            <mxPoint x="589" y="149" as="targetPoint" />
          </mxGeometry>
        </mxCell>
        <mxCell id="48mbSu4fNR1BJDRWVZsh-112" value="" style="endArrow=none;html=1;rounded=0;exitX=0.5;exitY=1;exitDx=0;exitDy=0;entryX=1;entryY=0;entryDx=0;entryDy=0;" parent="1" source="48mbSu4fNR1BJDRWVZsh-105" target="48mbSu4fNR1BJDRWVZsh-100" edge="1">
          <mxGeometry width="50" height="50" relative="1" as="geometry">
            <mxPoint x="539" y="69" as="sourcePoint" />
            <mxPoint x="589" y="19" as="targetPoint" />
          </mxGeometry>
        </mxCell>
        <mxCell id="48mbSu4fNR1BJDRWVZsh-113" value="Paid" style="whiteSpace=wrap;html=1;align=center;" parent="1" vertex="1">
          <mxGeometry x="610" y="274" width="100" height="40" as="geometry" />
        </mxCell>
        <mxCell id="48mbSu4fNR1BJDRWVZsh-114" value="PaymentID" style="ellipse;whiteSpace=wrap;html=1;align=center;fontStyle=4;" parent="1" vertex="1">
          <mxGeometry x="560" y="370" width="100" height="40" as="geometry" />
        </mxCell>
        <mxCell id="48mbSu4fNR1BJDRWVZsh-116" value="" style="endArrow=none;html=1;rounded=0;exitX=0.25;exitY=1;exitDx=0;exitDy=0;entryX=0.5;entryY=0;entryDx=0;entryDy=0;" parent="1" source="48mbSu4fNR1BJDRWVZsh-113" target="48mbSu4fNR1BJDRWVZsh-114" edge="1">
          <mxGeometry width="50" height="50" relative="1" as="geometry">
            <mxPoint x="670" y="234" as="sourcePoint" />
            <mxPoint x="720" y="184" as="targetPoint" />
          </mxGeometry>
        </mxCell>
        <mxCell id="48mbSu4fNR1BJDRWVZsh-120" value="PaymentDate" style="ellipse;whiteSpace=wrap;html=1;align=center;" parent="1" vertex="1">
          <mxGeometry x="674" y="370" width="100" height="40" as="geometry" />
        </mxCell>
        <mxCell id="48mbSu4fNR1BJDRWVZsh-121" value="Amount" style="ellipse;whiteSpace=wrap;html=1;align=center;" parent="1" vertex="1">
          <mxGeometry x="500" y="330" width="100" height="40" as="geometry" />
        </mxCell>
        <mxCell id="48mbSu4fNR1BJDRWVZsh-123" value="" style="endArrow=none;html=1;rounded=0;entryX=0;entryY=1;entryDx=0;entryDy=0;exitX=0.5;exitY=0;exitDx=0;exitDy=0;" parent="1" source="48mbSu4fNR1BJDRWVZsh-121" target="48mbSu4fNR1BJDRWVZsh-113" edge="1">
          <mxGeometry width="50" height="50" relative="1" as="geometry">
            <mxPoint x="820" y="434" as="sourcePoint" />
            <mxPoint x="870" y="384" as="targetPoint" />
          </mxGeometry>
        </mxCell>
        <mxCell id="48mbSu4fNR1BJDRWVZsh-125" value="PaymentMethod" style="ellipse;whiteSpace=wrap;html=1;align=center;" parent="1" vertex="1">
          <mxGeometry x="754" y="330" width="100" height="40" as="geometry" />
        </mxCell>
        <mxCell id="48mbSu4fNR1BJDRWVZsh-126" value="" style="endArrow=none;html=1;rounded=0;entryX=0.5;entryY=0;entryDx=0;entryDy=0;exitX=1;exitY=1;exitDx=0;exitDy=0;" parent="1" source="48mbSu4fNR1BJDRWVZsh-113" target="48mbSu4fNR1BJDRWVZsh-125" edge="1">
          <mxGeometry width="50" height="50" relative="1" as="geometry">
            <mxPoint x="690" y="274" as="sourcePoint" />
            <mxPoint x="740" y="224" as="targetPoint" />
          </mxGeometry>
        </mxCell>
        <mxCell id="48mbSu4fNR1BJDRWVZsh-127" value="" style="endArrow=none;html=1;rounded=0;entryX=0.5;entryY=0;entryDx=0;entryDy=0;exitX=0.75;exitY=1;exitDx=0;exitDy=0;" parent="1" source="48mbSu4fNR1BJDRWVZsh-113" target="48mbSu4fNR1BJDRWVZsh-120" edge="1">
          <mxGeometry width="50" height="50" relative="1" as="geometry">
            <mxPoint x="630" y="284" as="sourcePoint" />
            <mxPoint x="680" y="234" as="targetPoint" />
          </mxGeometry>
        </mxCell>
        <mxCell id="48mbSu4fNR1BJDRWVZsh-128" value="Review" style="whiteSpace=wrap;html=1;align=center;" parent="1" vertex="1">
          <mxGeometry x="932" y="169" width="100" height="40" as="geometry" />
        </mxCell>
        <mxCell id="48mbSu4fNR1BJDRWVZsh-129" value="ReviewID" style="ellipse;whiteSpace=wrap;html=1;align=center;fontStyle=4;" parent="1" vertex="1">
          <mxGeometry x="866" y="273" width="100" height="40" as="geometry" />
        </mxCell>
        <mxCell id="48mbSu4fNR1BJDRWVZsh-130" value="" style="endArrow=none;html=1;rounded=0;exitX=0;exitY=1;exitDx=0;exitDy=0;entryX=0.5;entryY=0;entryDx=0;entryDy=0;" parent="1" source="48mbSu4fNR1BJDRWVZsh-128" target="48mbSu4fNR1BJDRWVZsh-129" edge="1">
          <mxGeometry width="50" height="50" relative="1" as="geometry">
            <mxPoint x="1012" y="129" as="sourcePoint" />
            <mxPoint x="1062" y="79" as="targetPoint" />
          </mxGeometry>
        </mxCell>
        <mxCell id="48mbSu4fNR1BJDRWVZsh-135" value="Rating" style="ellipse;whiteSpace=wrap;html=1;align=center;" parent="1" vertex="1">
          <mxGeometry x="920" y="340" width="100" height="40" as="geometry" />
        </mxCell>
        <mxCell id="48mbSu4fNR1BJDRWVZsh-136" value="" style="endArrow=none;html=1;rounded=0;exitX=0.5;exitY=1;exitDx=0;exitDy=0;entryX=0.5;entryY=0;entryDx=0;entryDy=0;" parent="1" source="48mbSu4fNR1BJDRWVZsh-128" target="48mbSu4fNR1BJDRWVZsh-135" edge="1">
          <mxGeometry width="50" height="50" relative="1" as="geometry">
            <mxPoint x="1082" y="129" as="sourcePoint" />
            <mxPoint x="1132" y="79" as="targetPoint" />
            <Array as="points" />
          </mxGeometry>
        </mxCell>
        <mxCell id="48mbSu4fNR1BJDRWVZsh-137" value="Comment" style="ellipse;whiteSpace=wrap;html=1;align=center;" parent="1" vertex="1">
          <mxGeometry x="1052" y="260" width="100" height="40" as="geometry" />
        </mxCell>
        <mxCell id="48mbSu4fNR1BJDRWVZsh-138" value="" style="endArrow=none;html=1;rounded=0;exitX=0.5;exitY=0;exitDx=0;exitDy=0;entryX=1;entryY=1;entryDx=0;entryDy=0;" parent="1" source="48mbSu4fNR1BJDRWVZsh-137" target="48mbSu4fNR1BJDRWVZsh-128" edge="1">
          <mxGeometry width="50" height="50" relative="1" as="geometry">
            <mxPoint x="1152" y="169" as="sourcePoint" />
            <mxPoint x="967" y="219" as="targetPoint" />
          </mxGeometry>
        </mxCell>
        <mxCell id="48mbSu4fNR1BJDRWVZsh-139" value="ReviewDate" style="ellipse;whiteSpace=wrap;html=1;align=center;" parent="1" vertex="1">
          <mxGeometry x="989" y="300" width="100" height="40" as="geometry" />
        </mxCell>
        <mxCell id="48mbSu4fNR1BJDRWVZsh-140" value="" style="endArrow=none;html=1;rounded=0;exitX=0.5;exitY=0;exitDx=0;exitDy=0;entryX=0.75;entryY=1;entryDx=0;entryDy=0;" parent="1" source="48mbSu4fNR1BJDRWVZsh-139" target="48mbSu4fNR1BJDRWVZsh-128" edge="1">
          <mxGeometry width="50" height="50" relative="1" as="geometry">
            <mxPoint x="1182" y="199" as="sourcePoint" />
            <mxPoint x="1232" y="149" as="targetPoint" />
          </mxGeometry>
        </mxCell>
        <mxCell id="48mbSu4fNR1BJDRWVZsh-141" value="TripResource" style="whiteSpace=wrap;html=1;align=center;" parent="1" vertex="1">
          <mxGeometry x="1079" y="-150" width="100" height="40" as="geometry" />
        </mxCell>
        <mxCell id="48mbSu4fNR1BJDRWVZsh-142" value="ResourceID" style="ellipse;whiteSpace=wrap;html=1;align=center;fontStyle=4;" parent="1" vertex="1">
          <mxGeometry x="1179" y="-205" width="100" height="40" as="geometry" />
        </mxCell>
        <mxCell id="48mbSu4fNR1BJDRWVZsh-146" value="" style="endArrow=none;html=1;rounded=0;exitX=1;exitY=0;exitDx=0;exitDy=0;entryX=0.5;entryY=1;entryDx=0;entryDy=0;" parent="1" source="48mbSu4fNR1BJDRWVZsh-141" target="48mbSu4fNR1BJDRWVZsh-142" edge="1">
          <mxGeometry width="50" height="50" relative="1" as="geometry">
            <mxPoint x="1109" y="-170" as="sourcePoint" />
            <mxPoint x="1159" y="-220" as="targetPoint" />
          </mxGeometry>
        </mxCell>
        <mxCell id="48mbSu4fNR1BJDRWVZsh-149" value="ResourceType" style="ellipse;whiteSpace=wrap;html=1;align=center;" parent="1" vertex="1">
          <mxGeometry x="1191" y="-91" width="100" height="40" as="geometry" />
        </mxCell>
        <mxCell id="48mbSu4fNR1BJDRWVZsh-151" value="" style="endArrow=none;html=1;rounded=0;exitX=1;exitY=1;exitDx=0;exitDy=0;entryX=0.5;entryY=0;entryDx=0;entryDy=0;" parent="1" source="48mbSu4fNR1BJDRWVZsh-141" target="48mbSu4fNR1BJDRWVZsh-149" edge="1">
          <mxGeometry width="50" height="50" relative="1" as="geometry">
            <mxPoint x="1121" y="-140" as="sourcePoint" />
            <mxPoint x="1306" y="-150" as="targetPoint" />
          </mxGeometry>
        </mxCell>
        <mxCell id="48mbSu4fNR1BJDRWVZsh-153" value="ResourceProfile" style="whiteSpace=wrap;html=1;align=center;" parent="1" vertex="1">
          <mxGeometry x="1089" y="54" width="100" height="40" as="geometry" />
        </mxCell>
        <mxCell id="48mbSu4fNR1BJDRWVZsh-154" value="Details" style="ellipse;whiteSpace=wrap;html=1;align=center;" parent="1" vertex="1">
          <mxGeometry x="1144" y="174" width="100" height="40" as="geometry" />
        </mxCell>
        <mxCell id="48mbSu4fNR1BJDRWVZsh-155" value="Availability" style="ellipse;whiteSpace=wrap;html=1;align=center;" parent="1" vertex="1">
          <mxGeometry x="1235" y="54" width="100" height="40" as="geometry" />
        </mxCell>
        <mxCell id="48mbSu4fNR1BJDRWVZsh-156" value="Rating" style="ellipse;whiteSpace=wrap;html=1;align=center;" parent="1" vertex="1">
          <mxGeometry x="1189" y="114" width="100" height="40" as="geometry" />
        </mxCell>
        <mxCell id="48mbSu4fNR1BJDRWVZsh-159" value="" style="endArrow=none;html=1;rounded=0;entryX=0.75;entryY=1;entryDx=0;entryDy=0;exitX=0.5;exitY=0;exitDx=0;exitDy=0;" parent="1" source="48mbSu4fNR1BJDRWVZsh-154" target="48mbSu4fNR1BJDRWVZsh-153" edge="1">
          <mxGeometry width="50" height="50" relative="1" as="geometry">
            <mxPoint x="989" y="104" as="sourcePoint" />
            <mxPoint x="1039" y="54" as="targetPoint" />
          </mxGeometry>
        </mxCell>
        <mxCell id="48mbSu4fNR1BJDRWVZsh-162" value="" style="endArrow=none;html=1;rounded=0;entryX=1;entryY=0.5;entryDx=0;entryDy=0;exitX=0;exitY=0.5;exitDx=0;exitDy=0;" parent="1" source="48mbSu4fNR1BJDRWVZsh-155" target="48mbSu4fNR1BJDRWVZsh-153" edge="1">
          <mxGeometry width="50" height="50" relative="1" as="geometry">
            <mxPoint x="1029" y="134" as="sourcePoint" />
            <mxPoint x="1079" y="84" as="targetPoint" />
          </mxGeometry>
        </mxCell>
        <mxCell id="48mbSu4fNR1BJDRWVZsh-163" value="" style="endArrow=none;html=1;rounded=0;entryX=0.5;entryY=0;entryDx=0;entryDy=0;exitX=1;exitY=1;exitDx=0;exitDy=0;" parent="1" source="48mbSu4fNR1BJDRWVZsh-153" target="48mbSu4fNR1BJDRWVZsh-156" edge="1">
          <mxGeometry width="50" height="50" relative="1" as="geometry">
            <mxPoint x="1149" y="194" as="sourcePoint" />
            <mxPoint x="1199" y="144" as="targetPoint" />
          </mxGeometry>
        </mxCell>
        <mxCell id="woXMlEgJ_TZ1eh59vTZS-1" value="" style="ellipse;whiteSpace=wrap;html=1;aspect=fixed;" parent="1" vertex="1">
          <mxGeometry x="454" y="-500" width="20" height="20" as="geometry" />
        </mxCell>
        <mxCell id="woXMlEgJ_TZ1eh59vTZS-3" value="Phone" style="ellipse;whiteSpace=wrap;html=1;align=center;" parent="1" vertex="1">
          <mxGeometry x="500" y="-770" width="100" height="40" as="geometry" />
        </mxCell>
        <mxCell id="woXMlEgJ_TZ1eh59vTZS-4" value="" style="endArrow=none;html=1;rounded=0;entryX=0.275;entryY=0.925;entryDx=0;entryDy=0;exitX=0.75;exitY=0;exitDx=0;exitDy=0;entryPerimeter=0;" parent="1" source="48mbSu4fNR1BJDRWVZsh-1" target="woXMlEgJ_TZ1eh59vTZS-3" edge="1">
          <mxGeometry width="50" height="50" relative="1" as="geometry">
            <mxPoint x="170" y="-410" as="sourcePoint" />
            <mxPoint x="220" y="-460" as="targetPoint" />
          </mxGeometry>
        </mxCell>
        <mxCell id="woXMlEgJ_TZ1eh59vTZS-7" value="" style="endArrow=none;html=1;rounded=0;entryX=0.5;entryY=1;entryDx=0;entryDy=0;exitX=0.5;exitY=0;exitDx=0;exitDy=0;" parent="1" source="woXMlEgJ_TZ1eh59vTZS-1" target="48mbSu4fNR1BJDRWVZsh-1" edge="1">
          <mxGeometry width="50" height="50" relative="1" as="geometry">
            <mxPoint x="464" y="-505" as="sourcePoint" />
            <mxPoint x="260" y="-490" as="targetPoint" />
          </mxGeometry>
        </mxCell>
        <mxCell id="woXMlEgJ_TZ1eh59vTZS-11" value="" style="endArrow=none;html=1;rounded=0;entryX=0;entryY=0.5;entryDx=0;entryDy=0;exitX=0.5;exitY=0;exitDx=0;exitDy=0;" parent="1" source="48mbSu4fNR1BJDRWVZsh-13" target="woXMlEgJ_TZ1eh59vTZS-1" edge="1">
          <mxGeometry width="50" height="50" relative="1" as="geometry">
            <mxPoint x="280" y="-440" as="sourcePoint" />
            <mxPoint x="330" y="-490" as="targetPoint" />
          </mxGeometry>
        </mxCell>
        <mxCell id="woXMlEgJ_TZ1eh59vTZS-12" value="" style="endArrow=none;html=1;rounded=0;entryX=0;entryY=1;entryDx=0;entryDy=0;exitX=0.5;exitY=0;exitDx=0;exitDy=0;" parent="1" source="48mbSu4fNR1BJDRWVZsh-29" target="woXMlEgJ_TZ1eh59vTZS-1" edge="1">
          <mxGeometry width="50" height="50" relative="1" as="geometry">
            <mxPoint x="250" y="-420" as="sourcePoint" />
            <mxPoint x="300" y="-470" as="targetPoint" />
          </mxGeometry>
        </mxCell>
        <mxCell id="woXMlEgJ_TZ1eh59vTZS-13" value="" style="endArrow=none;html=1;rounded=0;entryX=1;entryY=1;entryDx=0;entryDy=0;exitX=0.25;exitY=0;exitDx=0;exitDy=0;" parent="1" source="48mbSu4fNR1BJDRWVZsh-50" target="woXMlEgJ_TZ1eh59vTZS-1" edge="1">
          <mxGeometry width="50" height="50" relative="1" as="geometry">
            <mxPoint x="530" y="-160" as="sourcePoint" />
            <mxPoint x="580" y="-210" as="targetPoint" />
          </mxGeometry>
        </mxCell>
        <mxCell id="woXMlEgJ_TZ1eh59vTZS-14" value="" style="endArrow=none;html=1;rounded=0;exitX=1;exitY=0.5;exitDx=0;exitDy=0;entryX=0.5;entryY=0;entryDx=0;entryDy=0;" parent="1" source="woXMlEgJ_TZ1eh59vTZS-1" target="48mbSu4fNR1BJDRWVZsh-39" edge="1">
          <mxGeometry width="50" height="50" relative="1" as="geometry">
            <mxPoint x="650" y="-460" as="sourcePoint" />
            <mxPoint x="700" y="-510" as="targetPoint" />
          </mxGeometry>
        </mxCell>
        <mxCell id="woXMlEgJ_TZ1eh59vTZS-15" value="O" style="text;html=1;align=center;verticalAlign=middle;whiteSpace=wrap;rounded=0;" parent="1" vertex="1">
          <mxGeometry x="434" y="-505" width="60" height="30" as="geometry" />
        </mxCell>
        <mxCell id="woXMlEgJ_TZ1eh59vTZS-18" value="Cancelled" style="whiteSpace=wrap;html=1;align=center;" parent="1" vertex="1">
          <mxGeometry x="208" y="273" width="100" height="40" as="geometry" />
        </mxCell>
        <mxCell id="woXMlEgJ_TZ1eh59vTZS-19" value="Reason" style="ellipse;whiteSpace=wrap;html=1;align=center;" parent="1" vertex="1">
          <mxGeometry x="208" y="390" width="100" height="40" as="geometry" />
        </mxCell>
        <mxCell id="woXMlEgJ_TZ1eh59vTZS-20" value="CancellationID" style="ellipse;whiteSpace=wrap;html=1;align=center;fontStyle=4;" parent="1" vertex="1">
          <mxGeometry x="120" y="333" width="100" height="40" as="geometry" />
        </mxCell>
        <mxCell id="woXMlEgJ_TZ1eh59vTZS-22" value="RefundAmount" style="ellipse;whiteSpace=wrap;html=1;align=center;" parent="1" vertex="1">
          <mxGeometry x="304" y="333" width="100" height="40" as="geometry" />
        </mxCell>
        <mxCell id="woXMlEgJ_TZ1eh59vTZS-26" value="" style="endArrow=none;html=1;rounded=0;entryX=1;entryY=1;entryDx=0;entryDy=0;exitX=0.5;exitY=0;exitDx=0;exitDy=0;" parent="1" source="woXMlEgJ_TZ1eh59vTZS-22" target="woXMlEgJ_TZ1eh59vTZS-18" edge="1">
          <mxGeometry width="50" height="50" relative="1" as="geometry">
            <mxPoint x="138" y="353" as="sourcePoint" />
            <mxPoint x="188" y="303" as="targetPoint" />
          </mxGeometry>
        </mxCell>
        <mxCell id="woXMlEgJ_TZ1eh59vTZS-27" value="" style="endArrow=none;html=1;rounded=0;entryX=0;entryY=1;entryDx=0;entryDy=0;exitX=0.5;exitY=0;exitDx=0;exitDy=0;" parent="1" source="woXMlEgJ_TZ1eh59vTZS-20" target="woXMlEgJ_TZ1eh59vTZS-18" edge="1">
          <mxGeometry width="50" height="50" relative="1" as="geometry">
            <mxPoint x="108" y="383" as="sourcePoint" />
            <mxPoint x="158" y="333" as="targetPoint" />
          </mxGeometry>
        </mxCell>
        <mxCell id="woXMlEgJ_TZ1eh59vTZS-28" value="" style="endArrow=none;html=1;rounded=0;entryX=0.5;entryY=0;entryDx=0;entryDy=0;exitX=0.5;exitY=1;exitDx=0;exitDy=0;" parent="1" source="woXMlEgJ_TZ1eh59vTZS-18" target="woXMlEgJ_TZ1eh59vTZS-19" edge="1">
          <mxGeometry width="50" height="50" relative="1" as="geometry">
            <mxPoint x="220" y="293" as="sourcePoint" />
            <mxPoint x="258" y="143" as="targetPoint" />
          </mxGeometry>
        </mxCell>
        <mxCell id="XrSpKoa4lkCXWR-hULQA-1" value="Type" style="ellipse;whiteSpace=wrap;html=1;align=center;" parent="1" vertex="1">
          <mxGeometry x="574" y="70" width="100" height="40" as="geometry" />
        </mxCell>
        <mxCell id="XrSpKoa4lkCXWR-hULQA-2" value="" style="endArrow=none;html=1;rounded=0;entryX=0.5;entryY=1;entryDx=0;entryDy=0;exitX=0.5;exitY=0;exitDx=0;exitDy=0;" parent="1" source="XrSpKoa4lkCXWR-hULQA-3" target="48mbSu4fNR1BJDRWVZsh-100" edge="1">
          <mxGeometry width="50" height="50" relative="1" as="geometry">
            <mxPoint x="463" y="190" as="sourcePoint" />
            <mxPoint x="420" y="160" as="targetPoint" />
          </mxGeometry>
        </mxCell>
        <mxCell id="XrSpKoa4lkCXWR-hULQA-3" value="" style="ellipse;whiteSpace=wrap;html=1;" parent="1" vertex="1">
          <mxGeometry x="452.5" y="186" width="21" height="23" as="geometry" />
        </mxCell>
        <mxCell id="XrSpKoa4lkCXWR-hULQA-6" value="" style="endArrow=none;html=1;rounded=0;entryX=0;entryY=1;entryDx=0;entryDy=0;exitX=0.5;exitY=0;exitDx=0;exitDy=0;" parent="1" source="woXMlEgJ_TZ1eh59vTZS-18" target="XrSpKoa4lkCXWR-hULQA-3" edge="1">
          <mxGeometry width="50" height="50" relative="1" as="geometry">
            <mxPoint x="310" y="250" as="sourcePoint" />
            <mxPoint x="360" y="200" as="targetPoint" />
          </mxGeometry>
        </mxCell>
        <mxCell id="XrSpKoa4lkCXWR-hULQA-7" value="" style="endArrow=none;html=1;rounded=0;entryX=1;entryY=1;entryDx=0;entryDy=0;exitX=0.5;exitY=0;exitDx=0;exitDy=0;" parent="1" source="48mbSu4fNR1BJDRWVZsh-113" target="XrSpKoa4lkCXWR-hULQA-3" edge="1">
          <mxGeometry width="50" height="50" relative="1" as="geometry">
            <mxPoint x="400" y="260" as="sourcePoint" />
            <mxPoint x="450" y="210" as="targetPoint" />
          </mxGeometry>
        </mxCell>
        <mxCell id="XrSpKoa4lkCXWR-hULQA-8" value="D" style="text;html=1;align=center;verticalAlign=middle;whiteSpace=wrap;rounded=0;" parent="1" vertex="1">
          <mxGeometry x="433" y="182.5" width="60" height="30" as="geometry" />
        </mxCell>
        <mxCell id="XrSpKoa4lkCXWR-hULQA-9" value="gives" style="shape=rhombus;perimeter=rhombusPerimeter;whiteSpace=wrap;html=1;align=center;" parent="1" vertex="1">
          <mxGeometry x="690" y="9" width="120" height="60" as="geometry" />
        </mxCell>
        <mxCell id="XrSpKoa4lkCXWR-hULQA-10" value="" style="endArrow=none;html=1;rounded=0;exitX=1;exitY=1;exitDx=0;exitDy=0;entryX=0.5;entryY=0;entryDx=0;entryDy=0;" parent="1" source="48mbSu4fNR1BJDRWVZsh-13" target="XrSpKoa4lkCXWR-hULQA-9" edge="1">
          <mxGeometry relative="1" as="geometry">
            <mxPoint x="30" y="-390" as="sourcePoint" />
            <mxPoint x="190" y="-390" as="targetPoint" />
          </mxGeometry>
        </mxCell>
        <mxCell id="XrSpKoa4lkCXWR-hULQA-11" value="1" style="resizable=0;html=1;whiteSpace=wrap;align=right;verticalAlign=bottom;" parent="XrSpKoa4lkCXWR-hULQA-10" connectable="0" vertex="1">
          <mxGeometry x="1" relative="1" as="geometry">
            <mxPoint x="-18" y="9" as="offset" />
          </mxGeometry>
        </mxCell>
        <mxCell id="XrSpKoa4lkCXWR-hULQA-14" value="covers" style="shape=rhombus;perimeter=rhombusPerimeter;whiteSpace=wrap;html=1;align=center;" parent="1" vertex="1">
          <mxGeometry x="-120" y="55.5" width="120" height="60" as="geometry" />
        </mxCell>
        <mxCell id="XrSpKoa4lkCXWR-hULQA-17" value="" style="endArrow=none;html=1;rounded=0;exitX=0.5;exitY=0;exitDx=0;exitDy=0;entryX=0.5;entryY=1;entryDx=0;entryDy=0;" parent="1" source="48mbSu4fNR1BJDRWVZsh-80" target="XrSpKoa4lkCXWR-hULQA-14" edge="1">
          <mxGeometry relative="1" as="geometry">
            <mxPoint y="160" as="sourcePoint" />
            <mxPoint x="160" y="160" as="targetPoint" />
          </mxGeometry>
        </mxCell>
        <mxCell id="XrSpKoa4lkCXWR-hULQA-18" value="N" style="resizable=0;html=1;whiteSpace=wrap;align=right;verticalAlign=bottom;" parent="XrSpKoa4lkCXWR-hULQA-17" connectable="0" vertex="1">
          <mxGeometry x="1" relative="1" as="geometry">
            <mxPoint x="-11" y="10" as="offset" />
          </mxGeometry>
        </mxCell>
        <mxCell id="XrSpKoa4lkCXWR-hULQA-19" value="includes" style="shape=rhombus;perimeter=rhombusPerimeter;whiteSpace=wrap;html=1;align=center;" parent="1" vertex="1">
          <mxGeometry x="88" y="20" width="120" height="60" as="geometry" />
        </mxCell>
        <mxCell id="XrSpKoa4lkCXWR-hULQA-24" value="provides" style="shape=rhombus;perimeter=rhombusPerimeter;whiteSpace=wrap;html=1;align=center;" parent="1" vertex="1">
          <mxGeometry x="900" y="-215" width="120" height="60" as="geometry" />
        </mxCell>
        <mxCell id="XrSpKoa4lkCXWR-hULQA-36" value="oversees" style="shape=rhombus;perimeter=rhombusPerimeter;whiteSpace=wrap;html=1;align=center;" parent="1" vertex="1">
          <mxGeometry x="80" y="-165" width="120" height="60" as="geometry" />
        </mxCell>
        <mxCell id="XrSpKoa4lkCXWR-hULQA-37" value="" style="endArrow=none;html=1;rounded=0;exitX=0.5;exitY=1;exitDx=0;exitDy=0;entryX=1;entryY=0.5;entryDx=0;entryDy=0;" parent="1" source="48mbSu4fNR1BJDRWVZsh-29" target="XrSpKoa4lkCXWR-hULQA-36" edge="1">
          <mxGeometry relative="1" as="geometry">
            <mxPoint x="620" y="-150" as="sourcePoint" />
            <mxPoint x="780" y="-150" as="targetPoint" />
          </mxGeometry>
        </mxCell>
        <mxCell id="XrSpKoa4lkCXWR-hULQA-38" value="1" style="resizable=0;html=1;whiteSpace=wrap;align=right;verticalAlign=bottom;" parent="XrSpKoa4lkCXWR-hULQA-37" connectable="0" vertex="1">
          <mxGeometry x="1" relative="1" as="geometry" />
        </mxCell>
        <mxCell id="XrSpKoa4lkCXWR-hULQA-41" value="takes" style="shape=rhombus;perimeter=rhombusPerimeter;whiteSpace=wrap;html=1;align=center;" parent="1" vertex="1">
          <mxGeometry x="-55" y="-210" width="120" height="60" as="geometry" />
        </mxCell>
        <mxCell id="XrSpKoa4lkCXWR-hULQA-42" value="" style="endArrow=none;html=1;rounded=0;exitX=0.5;exitY=1;exitDx=0;exitDy=0;entryX=0.5;entryY=0;entryDx=0;entryDy=0;" parent="1" source="48mbSu4fNR1BJDRWVZsh-13" target="XrSpKoa4lkCXWR-hULQA-41" edge="1">
          <mxGeometry relative="1" as="geometry">
            <mxPoint x="180" y="-250" as="sourcePoint" />
            <mxPoint x="340" y="-250" as="targetPoint" />
          </mxGeometry>
        </mxCell>
        <mxCell id="XrSpKoa4lkCXWR-hULQA-43" value="1" style="resizable=0;html=1;whiteSpace=wrap;align=right;verticalAlign=bottom;" parent="XrSpKoa4lkCXWR-hULQA-42" connectable="0" vertex="1">
          <mxGeometry x="1" relative="1" as="geometry">
            <mxPoint x="-6" as="offset" />
          </mxGeometry>
        </mxCell>
        <mxCell id="XrSpKoa4lkCXWR-hULQA-46" value="filters" style="shape=rhombus;perimeter=rhombusPerimeter;whiteSpace=wrap;html=1;align=center;" parent="1" vertex="1">
          <mxGeometry x="707" y="-205" width="120" height="60" as="geometry" />
        </mxCell>
        <mxCell id="XrSpKoa4lkCXWR-hULQA-47" value="" style="endArrow=none;html=1;rounded=0;exitX=1;exitY=1;exitDx=0;exitDy=0;entryX=0.5;entryY=0;entryDx=0;entryDy=0;" parent="1" source="48mbSu4fNR1BJDRWVZsh-50" target="XrSpKoa4lkCXWR-hULQA-46" edge="1">
          <mxGeometry relative="1" as="geometry">
            <mxPoint x="640" y="10" as="sourcePoint" />
            <mxPoint x="800" y="10" as="targetPoint" />
          </mxGeometry>
        </mxCell>
        <mxCell id="XrSpKoa4lkCXWR-hULQA-48" value="1" style="resizable=0;html=1;whiteSpace=wrap;align=right;verticalAlign=bottom;" parent="XrSpKoa4lkCXWR-hULQA-47" connectable="0" vertex="1">
          <mxGeometry x="1" relative="1" as="geometry">
            <mxPoint x="4" y="-1" as="offset" />
          </mxGeometry>
        </mxCell>
        <mxCell id="XrSpKoa4lkCXWR-hULQA-49" value="" style="endArrow=none;html=1;rounded=0;entryX=0.5;entryY=1;entryDx=0;entryDy=0;exitX=0.5;exitY=0;exitDx=0;exitDy=0;" parent="1" source="48mbSu4fNR1BJDRWVZsh-128" target="XrSpKoa4lkCXWR-hULQA-46" edge="1">
          <mxGeometry relative="1" as="geometry">
            <mxPoint x="790" y="-80" as="sourcePoint" />
            <mxPoint x="950" y="-80" as="targetPoint" />
          </mxGeometry>
        </mxCell>
        <mxCell id="XrSpKoa4lkCXWR-hULQA-50" value="N" style="resizable=0;html=1;whiteSpace=wrap;align=right;verticalAlign=bottom;" parent="XrSpKoa4lkCXWR-hULQA-49" connectable="0" vertex="1">
          <mxGeometry x="1" relative="1" as="geometry">
            <mxPoint x="-4" y="13" as="offset" />
          </mxGeometry>
        </mxCell>
        <mxCell id="XrSpKoa4lkCXWR-hULQA-52" value="receives" style="shape=rhombus;perimeter=rhombusPerimeter;whiteSpace=wrap;html=1;align=center;" parent="1" vertex="1">
          <mxGeometry x="114" y="149" width="120" height="60" as="geometry" />
        </mxCell>
        <mxCell id="XrSpKoa4lkCXWR-hULQA-53" value="" style="endArrow=none;html=1;rounded=0;exitX=0.75;exitY=1;exitDx=0;exitDy=0;entryX=0;entryY=0.5;entryDx=0;entryDy=0;" parent="1" source="48mbSu4fNR1BJDRWVZsh-55" target="XrSpKoa4lkCXWR-hULQA-52" edge="1">
          <mxGeometry relative="1" as="geometry">
            <mxPoint x="150" y="90" as="sourcePoint" />
            <mxPoint x="310" y="90" as="targetPoint" />
          </mxGeometry>
        </mxCell>
        <mxCell id="XrSpKoa4lkCXWR-hULQA-54" value="1" style="resizable=0;html=1;whiteSpace=wrap;align=right;verticalAlign=bottom;" parent="XrSpKoa4lkCXWR-hULQA-53" connectable="0" vertex="1">
          <mxGeometry x="1" relative="1" as="geometry">
            <mxPoint x="6" y="-4" as="offset" />
          </mxGeometry>
        </mxCell>
        <mxCell id="XrSpKoa4lkCXWR-hULQA-57" value="books" style="shape=rhombus;perimeter=rhombusPerimeter;whiteSpace=wrap;html=1;align=center;" parent="1" vertex="1">
          <mxGeometry x="248" y="-20" width="120" height="60" as="geometry" />
        </mxCell>
        <mxCell id="XrSpKoa4lkCXWR-hULQA-58" value="" style="endArrow=none;html=1;rounded=0;exitX=0.75;exitY=1;exitDx=0;exitDy=0;entryX=0.5;entryY=0;entryDx=0;entryDy=0;" parent="1" source="48mbSu4fNR1BJDRWVZsh-13" target="XrSpKoa4lkCXWR-hULQA-57" edge="1">
          <mxGeometry relative="1" as="geometry">
            <mxPoint x="210" y="-20" as="sourcePoint" />
            <mxPoint x="360" y="-20" as="targetPoint" />
          </mxGeometry>
        </mxCell>
        <mxCell id="XrSpKoa4lkCXWR-hULQA-59" value="1" style="resizable=0;html=1;whiteSpace=wrap;align=right;verticalAlign=bottom;" parent="XrSpKoa4lkCXWR-hULQA-58" connectable="0" vertex="1">
          <mxGeometry x="1" relative="1" as="geometry">
            <mxPoint x="4" y="-1" as="offset" />
          </mxGeometry>
        </mxCell>
        <mxCell id="XrSpKoa4lkCXWR-hULQA-63" value="has contract with" style="shape=rhombus;perimeter=rhombusPerimeter;whiteSpace=wrap;html=1;align=center;" parent="1" vertex="1">
          <mxGeometry x="520" y="-265" width="120" height="60" as="geometry" />
        </mxCell>
        <mxCell id="XrSpKoa4lkCXWR-hULQA-64" value="" style="endArrow=none;html=1;rounded=0;exitX=1;exitY=1;exitDx=0;exitDy=0;entryX=0;entryY=0.5;entryDx=0;entryDy=0;" parent="1" source="48mbSu4fNR1BJDRWVZsh-29" target="XrSpKoa4lkCXWR-hULQA-63" edge="1">
          <mxGeometry relative="1" as="geometry">
            <mxPoint x="360" y="-300" as="sourcePoint" />
            <mxPoint x="520" y="-300" as="targetPoint" />
          </mxGeometry>
        </mxCell>
        <mxCell id="XrSpKoa4lkCXWR-hULQA-65" value="1" style="resizable=0;html=1;whiteSpace=wrap;align=right;verticalAlign=bottom;" parent="XrSpKoa4lkCXWR-hULQA-64" connectable="0" vertex="1">
          <mxGeometry x="1" relative="1" as="geometry">
            <mxPoint x="3" y="-3" as="offset" />
          </mxGeometry>
        </mxCell>
        <mxCell id="XrSpKoa4lkCXWR-hULQA-66" value="" style="endArrow=none;html=1;rounded=0;entryX=1;entryY=0.5;entryDx=0;entryDy=0;exitX=0;exitY=1;exitDx=0;exitDy=0;" parent="1" source="48mbSu4fNR1BJDRWVZsh-39" target="XrSpKoa4lkCXWR-hULQA-63" edge="1">
          <mxGeometry relative="1" as="geometry">
            <mxPoint x="620" y="-160" as="sourcePoint" />
            <mxPoint x="780" y="-160" as="targetPoint" />
          </mxGeometry>
        </mxCell>
        <mxCell id="XrSpKoa4lkCXWR-hULQA-67" value="N" style="resizable=0;html=1;whiteSpace=wrap;align=right;verticalAlign=bottom;" parent="XrSpKoa4lkCXWR-hULQA-66" connectable="0" vertex="1">
          <mxGeometry x="1" relative="1" as="geometry">
            <mxPoint x="2" y="-2" as="offset" />
          </mxGeometry>
        </mxCell>
        <mxCell id="XrSpKoa4lkCXWR-hULQA-68" value="utilizes" style="shape=rhombus;perimeter=rhombusPerimeter;whiteSpace=wrap;html=1;align=center;" parent="1" vertex="1">
          <mxGeometry x="390" y="-80" width="120" height="60" as="geometry" />
        </mxCell>
        <mxCell id="XrSpKoa4lkCXWR-hULQA-71" value="" style="endArrow=none;html=1;rounded=0;entryX=1;entryY=0.5;entryDx=0;entryDy=0;exitX=0;exitY=1;exitDx=0;exitDy=0;" parent="1" source="48mbSu4fNR1BJDRWVZsh-141" target="XrSpKoa4lkCXWR-hULQA-68" edge="1">
          <mxGeometry relative="1" as="geometry">
            <mxPoint x="390" y="-30" as="sourcePoint" />
            <mxPoint x="550" y="-30" as="targetPoint" />
          </mxGeometry>
        </mxCell>
        <mxCell id="XrSpKoa4lkCXWR-hULQA-72" value="N" style="resizable=0;html=1;whiteSpace=wrap;align=right;verticalAlign=bottom;" parent="XrSpKoa4lkCXWR-hULQA-71" connectable="0" vertex="1">
          <mxGeometry x="1" relative="1" as="geometry">
            <mxPoint y="23" as="offset" />
          </mxGeometry>
        </mxCell>
        <mxCell id="XrSpKoa4lkCXWR-hULQA-73" value="gives" style="shape=rhombus;perimeter=rhombusPerimeter;whiteSpace=wrap;html=1;align=center;" parent="1" vertex="1">
          <mxGeometry x="880" y="-80" width="120" height="60" as="geometry" />
        </mxCell>
        <mxCell id="8E1WDHk8-CVribd5DDTP-1" value="" style="shape=link;html=1;rounded=0;entryX=0.5;entryY=1;entryDx=0;entryDy=0;exitX=0.5;exitY=0;exitDx=0;exitDy=0;" parent="1" source="48mbSu4fNR1BJDRWVZsh-55" target="XrSpKoa4lkCXWR-hULQA-41" edge="1">
          <mxGeometry relative="1" as="geometry">
            <mxPoint x="-150" y="-110" as="sourcePoint" />
            <mxPoint x="10" y="-110" as="targetPoint" />
          </mxGeometry>
        </mxCell>
        <mxCell id="8E1WDHk8-CVribd5DDTP-2" value="N" style="resizable=0;html=1;whiteSpace=wrap;align=right;verticalAlign=bottom;" parent="8E1WDHk8-CVribd5DDTP-1" connectable="0" vertex="1">
          <mxGeometry x="1" relative="1" as="geometry">
            <mxPoint x="-17" y="7" as="offset" />
          </mxGeometry>
        </mxCell>
        <mxCell id="8E1WDHk8-CVribd5DDTP-3" value="" style="shape=link;html=1;rounded=0;entryX=0;entryY=0.5;entryDx=0;entryDy=0;exitX=1;exitY=0;exitDx=0;exitDy=0;" parent="1" source="48mbSu4fNR1BJDRWVZsh-55" target="XrSpKoa4lkCXWR-hULQA-36" edge="1">
          <mxGeometry relative="1" as="geometry">
            <mxPoint x="-10" y="-90" as="sourcePoint" />
            <mxPoint x="150" y="-90" as="targetPoint" />
          </mxGeometry>
        </mxCell>
        <mxCell id="8E1WDHk8-CVribd5DDTP-4" value="N" style="resizable=0;html=1;whiteSpace=wrap;align=right;verticalAlign=bottom;" parent="8E1WDHk8-CVribd5DDTP-3" connectable="0" vertex="1">
          <mxGeometry x="1" relative="1" as="geometry" />
        </mxCell>
        <mxCell id="8E1WDHk8-CVribd5DDTP-5" value="" style="shape=link;html=1;rounded=0;entryX=0.5;entryY=1;entryDx=0;entryDy=0;exitX=0;exitY=0.5;exitDx=0;exitDy=0;" parent="1" source="48mbSu4fNR1BJDRWVZsh-141" target="XrSpKoa4lkCXWR-hULQA-24" edge="1">
          <mxGeometry relative="1" as="geometry">
            <mxPoint x="1040" y="-30" as="sourcePoint" />
            <mxPoint x="1200" y="-30" as="targetPoint" />
          </mxGeometry>
        </mxCell>
        <mxCell id="8E1WDHk8-CVribd5DDTP-6" value="N" style="resizable=0;html=1;whiteSpace=wrap;align=right;verticalAlign=bottom;" parent="8E1WDHk8-CVribd5DDTP-5" connectable="0" vertex="1">
          <mxGeometry x="1" relative="1" as="geometry">
            <mxPoint y="17" as="offset" />
          </mxGeometry>
        </mxCell>
        <mxCell id="8E1WDHk8-CVribd5DDTP-7" value="" style="shape=link;html=1;rounded=0;exitX=0.5;exitY=1;exitDx=0;exitDy=0;entryX=0.5;entryY=0;entryDx=0;entryDy=0;" parent="1" source="48mbSu4fNR1BJDRWVZsh-39" target="XrSpKoa4lkCXWR-hULQA-24" edge="1">
          <mxGeometry relative="1" as="geometry">
            <mxPoint x="1020" y="-80" as="sourcePoint" />
            <mxPoint x="1180" y="-80" as="targetPoint" />
          </mxGeometry>
        </mxCell>
        <mxCell id="8E1WDHk8-CVribd5DDTP-8" value="M" style="resizable=0;html=1;whiteSpace=wrap;align=right;verticalAlign=bottom;" parent="8E1WDHk8-CVribd5DDTP-7" connectable="0" vertex="1">
          <mxGeometry x="1" relative="1" as="geometry">
            <mxPoint x="-16" y="7" as="offset" />
          </mxGeometry>
        </mxCell>
        <mxCell id="8E1WDHk8-CVribd5DDTP-9" value="" style="shape=link;html=1;rounded=0;exitX=1;exitY=0.5;exitDx=0;exitDy=0;entryX=0;entryY=0.5;entryDx=0;entryDy=0;" parent="1" source="48mbSu4fNR1BJDRWVZsh-55" target="XrSpKoa4lkCXWR-hULQA-68" edge="1">
          <mxGeometry relative="1" as="geometry">
            <mxPoint x="70" y="-40" as="sourcePoint" />
            <mxPoint x="230" y="-40" as="targetPoint" />
          </mxGeometry>
        </mxCell>
        <mxCell id="8E1WDHk8-CVribd5DDTP-10" value="1" style="resizable=0;html=1;whiteSpace=wrap;align=right;verticalAlign=bottom;" parent="8E1WDHk8-CVribd5DDTP-9" connectable="0" vertex="1">
          <mxGeometry x="1" relative="1" as="geometry">
            <mxPoint y="-3" as="offset" />
          </mxGeometry>
        </mxCell>
        <mxCell id="8E1WDHk8-CVribd5DDTP-11" value="" style="shape=link;html=1;rounded=0;exitX=0.5;exitY=0;exitDx=0;exitDy=0;entryX=0.5;entryY=1;entryDx=0;entryDy=0;" parent="1" source="48mbSu4fNR1BJDRWVZsh-100" target="XrSpKoa4lkCXWR-hULQA-57" edge="1">
          <mxGeometry relative="1" as="geometry">
            <mxPoint x="320" y="30" as="sourcePoint" />
            <mxPoint x="480" y="30" as="targetPoint" />
          </mxGeometry>
        </mxCell>
        <mxCell id="8E1WDHk8-CVribd5DDTP-12" value="1" style="resizable=0;html=1;whiteSpace=wrap;align=right;verticalAlign=bottom;" parent="8E1WDHk8-CVribd5DDTP-11" connectable="0" vertex="1">
          <mxGeometry x="1" relative="1" as="geometry">
            <mxPoint y="16" as="offset" />
          </mxGeometry>
        </mxCell>
        <mxCell id="8E1WDHk8-CVribd5DDTP-13" value="" style="shape=link;html=1;rounded=0;exitX=1;exitY=1;exitDx=0;exitDy=0;entryX=0;entryY=0.5;entryDx=0;entryDy=0;" parent="1" source="48mbSu4fNR1BJDRWVZsh-55" target="XrSpKoa4lkCXWR-hULQA-19" edge="1">
          <mxGeometry relative="1" as="geometry">
            <mxPoint x="20" y="-30" as="sourcePoint" />
            <mxPoint x="180" y="-30" as="targetPoint" />
          </mxGeometry>
        </mxCell>
        <mxCell id="8E1WDHk8-CVribd5DDTP-14" value="1" style="resizable=0;html=1;whiteSpace=wrap;align=right;verticalAlign=bottom;" parent="8E1WDHk8-CVribd5DDTP-13" connectable="0" vertex="1">
          <mxGeometry x="1" relative="1" as="geometry">
            <mxPoint x="3" y="-6" as="offset" />
          </mxGeometry>
        </mxCell>
        <mxCell id="8E1WDHk8-CVribd5DDTP-15" value="" style="shape=link;html=1;rounded=0;exitX=0;exitY=0;exitDx=0;exitDy=0;entryX=1;entryY=0.5;entryDx=0;entryDy=0;" parent="1" source="48mbSu4fNR1BJDRWVZsh-100" target="XrSpKoa4lkCXWR-hULQA-19" edge="1">
          <mxGeometry relative="1" as="geometry">
            <mxPoint x="90" y="120" as="sourcePoint" />
            <mxPoint x="250" y="120" as="targetPoint" />
          </mxGeometry>
        </mxCell>
        <mxCell id="8E1WDHk8-CVribd5DDTP-16" value="N" style="resizable=0;html=1;whiteSpace=wrap;align=right;verticalAlign=bottom;" parent="8E1WDHk8-CVribd5DDTP-15" connectable="0" vertex="1">
          <mxGeometry x="1" relative="1" as="geometry">
            <mxPoint x="4" y="-3" as="offset" />
          </mxGeometry>
        </mxCell>
        <mxCell id="8E1WDHk8-CVribd5DDTP-17" value="" style="shape=link;html=1;rounded=0;entryX=1;entryY=0.5;entryDx=0;entryDy=0;exitX=0;exitY=0.5;exitDx=0;exitDy=0;" parent="1" source="48mbSu4fNR1BJDRWVZsh-128" target="XrSpKoa4lkCXWR-hULQA-52" edge="1">
          <mxGeometry relative="1" as="geometry">
            <mxPoint x="610" y="190" as="sourcePoint" />
            <mxPoint x="770" y="190" as="targetPoint" />
          </mxGeometry>
        </mxCell>
        <mxCell id="8E1WDHk8-CVribd5DDTP-18" value="N" style="resizable=0;html=1;whiteSpace=wrap;align=right;verticalAlign=bottom;" parent="8E1WDHk8-CVribd5DDTP-17" connectable="0" vertex="1">
          <mxGeometry x="1" relative="1" as="geometry">
            <mxPoint x="2" y="-2" as="offset" />
          </mxGeometry>
        </mxCell>
        <mxCell id="8E1WDHk8-CVribd5DDTP-19" value="" style="shape=link;html=1;rounded=0;exitX=0.5;exitY=1;exitDx=0;exitDy=0;entryX=0.5;entryY=0;entryDx=0;entryDy=0;" parent="1" source="48mbSu4fNR1BJDRWVZsh-55" target="XrSpKoa4lkCXWR-hULQA-14" edge="1">
          <mxGeometry relative="1" as="geometry">
            <mxPoint x="20" y="200" as="sourcePoint" />
            <mxPoint x="180" y="200" as="targetPoint" />
          </mxGeometry>
        </mxCell>
        <mxCell id="8E1WDHk8-CVribd5DDTP-20" value="1" style="resizable=0;html=1;whiteSpace=wrap;align=right;verticalAlign=bottom;" parent="8E1WDHk8-CVribd5DDTP-19" connectable="0" vertex="1">
          <mxGeometry x="1" relative="1" as="geometry">
            <mxPoint x="10" as="offset" />
          </mxGeometry>
        </mxCell>
        <mxCell id="8E1WDHk8-CVribd5DDTP-22" value="oversees" style="shape=rhombus;perimeter=rhombusPerimeter;whiteSpace=wrap;html=1;align=center;" parent="1" vertex="1">
          <mxGeometry x="267" y="-153" width="120" height="60" as="geometry" />
        </mxCell>
        <mxCell id="8E1WDHk8-CVribd5DDTP-23" value="" style="shape=link;html=1;rounded=0;exitX=1;exitY=0.25;exitDx=0;exitDy=0;entryX=0;entryY=0.5;entryDx=0;entryDy=0;" parent="1" source="48mbSu4fNR1BJDRWVZsh-55" target="8E1WDHk8-CVribd5DDTP-22" edge="1">
          <mxGeometry relative="1" as="geometry">
            <mxPoint x="50" y="-80" as="sourcePoint" />
            <mxPoint x="210" y="-80" as="targetPoint" />
          </mxGeometry>
        </mxCell>
        <mxCell id="8E1WDHk8-CVribd5DDTP-24" value="N" style="resizable=0;html=1;whiteSpace=wrap;align=right;verticalAlign=bottom;" parent="8E1WDHk8-CVribd5DDTP-23" connectable="0" vertex="1">
          <mxGeometry x="1" relative="1" as="geometry">
            <mxPoint y="-3" as="offset" />
          </mxGeometry>
        </mxCell>
        <mxCell id="8E1WDHk8-CVribd5DDTP-25" value="" style="shape=link;html=1;rounded=0;exitX=0;exitY=0.5;exitDx=0;exitDy=0;entryX=1;entryY=0.5;entryDx=0;entryDy=0;" parent="1" source="48mbSu4fNR1BJDRWVZsh-50" target="8E1WDHk8-CVribd5DDTP-22" edge="1">
          <mxGeometry relative="1" as="geometry">
            <mxPoint x="440" y="-180" as="sourcePoint" />
            <mxPoint x="600" y="-180" as="targetPoint" />
          </mxGeometry>
        </mxCell>
        <mxCell id="8E1WDHk8-CVribd5DDTP-26" value="1" style="resizable=0;html=1;whiteSpace=wrap;align=right;verticalAlign=bottom;" parent="8E1WDHk8-CVribd5DDTP-25" connectable="0" vertex="1">
          <mxGeometry x="1" relative="1" as="geometry">
            <mxPoint y="-2" as="offset" />
          </mxGeometry>
        </mxCell>
        <mxCell id="8E1WDHk8-CVribd5DDTP-27" value="" style="shape=link;html=1;rounded=0;exitX=0.25;exitY=1;exitDx=0;exitDy=0;entryX=0.5;entryY=0;entryDx=0;entryDy=0;" parent="1" source="48mbSu4fNR1BJDRWVZsh-39" target="XrSpKoa4lkCXWR-hULQA-73" edge="1">
          <mxGeometry relative="1" as="geometry">
            <mxPoint x="1050" y="-100" as="sourcePoint" />
            <mxPoint x="1210" y="-100" as="targetPoint" />
          </mxGeometry>
        </mxCell>
        <mxCell id="8E1WDHk8-CVribd5DDTP-28" value="1" style="resizable=0;html=1;whiteSpace=wrap;align=right;verticalAlign=bottom;" parent="8E1WDHk8-CVribd5DDTP-27" connectable="0" vertex="1">
          <mxGeometry x="1" relative="1" as="geometry">
            <mxPoint x="-10" y="6" as="offset" />
          </mxGeometry>
        </mxCell>
        <mxCell id="8E1WDHk8-CVribd5DDTP-29" value="" style="shape=link;html=1;rounded=0;entryX=0.5;entryY=1;entryDx=0;entryDy=0;exitX=0;exitY=0.5;exitDx=0;exitDy=0;" parent="1" source="48mbSu4fNR1BJDRWVZsh-153" target="XrSpKoa4lkCXWR-hULQA-73" edge="1">
          <mxGeometry relative="1" as="geometry">
            <mxPoint x="900" y="70" as="sourcePoint" />
            <mxPoint x="1060" y="70" as="targetPoint" />
          </mxGeometry>
        </mxCell>
        <mxCell id="8E1WDHk8-CVribd5DDTP-30" value="N" style="resizable=0;html=1;whiteSpace=wrap;align=right;verticalAlign=bottom;" parent="8E1WDHk8-CVribd5DDTP-29" connectable="0" vertex="1">
          <mxGeometry x="1" relative="1" as="geometry">
            <mxPoint x="-4" y="14" as="offset" />
          </mxGeometry>
        </mxCell>
        <mxCell id="8E1WDHk8-CVribd5DDTP-31" value="" style="shape=link;html=1;rounded=0;entryX=0.5;entryY=1;entryDx=0;entryDy=0;exitX=0;exitY=0;exitDx=0;exitDy=0;" parent="1" source="48mbSu4fNR1BJDRWVZsh-128" target="XrSpKoa4lkCXWR-hULQA-9" edge="1">
          <mxGeometry relative="1" as="geometry">
            <mxPoint x="650" y="140" as="sourcePoint" />
            <mxPoint x="810" y="140" as="targetPoint" />
          </mxGeometry>
        </mxCell>
        <mxCell id="8E1WDHk8-CVribd5DDTP-32" value="1" style="resizable=0;html=1;whiteSpace=wrap;align=right;verticalAlign=bottom;" parent="8E1WDHk8-CVribd5DDTP-31" connectable="0" vertex="1">
          <mxGeometry x="1" relative="1" as="geometry">
            <mxPoint x="-4" y="13" as="offset" />
          </mxGeometry>
        </mxCell>
        <mxCell id="8E1WDHk8-CVribd5DDTP-33" value="Registration" style="whiteSpace=wrap;html=1;align=center;" parent="1" vertex="1">
          <mxGeometry x="832" y="-540" width="100" height="40" as="geometry" />
        </mxCell>
        <mxCell id="8E1WDHk8-CVribd5DDTP-34" value="RegistrationID" style="ellipse;whiteSpace=wrap;html=1;align=center;fontStyle=4;" parent="1" vertex="1">
          <mxGeometry x="832" y="-610" width="100" height="40" as="geometry" />
        </mxCell>
        <mxCell id="8E1WDHk8-CVribd5DDTP-35" value="" style="endArrow=none;html=1;rounded=0;entryX=0.5;entryY=0;entryDx=0;entryDy=0;exitX=0.5;exitY=1;exitDx=0;exitDy=0;" parent="1" source="8E1WDHk8-CVribd5DDTP-34" target="8E1WDHk8-CVribd5DDTP-33" edge="1">
          <mxGeometry width="50" height="50" relative="1" as="geometry">
            <mxPoint x="740" y="-430" as="sourcePoint" />
            <mxPoint x="790" y="-480" as="targetPoint" />
          </mxGeometry>
        </mxCell>
        <mxCell id="8E1WDHk8-CVribd5DDTP-36" value="approves" style="shape=rhombus;perimeter=rhombusPerimeter;whiteSpace=wrap;html=1;align=center;" parent="1" vertex="1">
          <mxGeometry x="610" y="-535" width="120" height="60" as="geometry" />
        </mxCell>
        <mxCell id="8E1WDHk8-CVribd5DDTP-37" value="" style="shape=link;html=1;rounded=0;entryX=1;entryY=0.5;entryDx=0;entryDy=0;exitX=0;exitY=0.5;exitDx=0;exitDy=0;" parent="1" source="8E1WDHk8-CVribd5DDTP-33" target="8E1WDHk8-CVribd5DDTP-36" edge="1">
          <mxGeometry relative="1" as="geometry">
            <mxPoint x="730" y="-420" as="sourcePoint" />
            <mxPoint x="890" y="-420" as="targetPoint" />
          </mxGeometry>
        </mxCell>
        <mxCell id="8E1WDHk8-CVribd5DDTP-38" value="N" style="resizable=0;html=1;whiteSpace=wrap;align=right;verticalAlign=bottom;" parent="8E1WDHk8-CVribd5DDTP-37" connectable="0" vertex="1">
          <mxGeometry x="1" relative="1" as="geometry">
            <mxPoint x="2" y="-2" as="offset" />
          </mxGeometry>
        </mxCell>
        <mxCell id="8E1WDHk8-CVribd5DDTP-39" value="" style="shape=link;html=1;rounded=0;entryX=0.5;entryY=1;entryDx=0;entryDy=0;exitX=0.5;exitY=0;exitDx=0;exitDy=0;" parent="1" source="48mbSu4fNR1BJDRWVZsh-50" target="8E1WDHk8-CVribd5DDTP-36" edge="1">
          <mxGeometry relative="1" as="geometry">
            <mxPoint x="670" y="-420" as="sourcePoint" />
            <mxPoint x="830" y="-420" as="targetPoint" />
          </mxGeometry>
        </mxCell>
        <mxCell id="8E1WDHk8-CVribd5DDTP-40" value="1" style="resizable=0;html=1;whiteSpace=wrap;align=right;verticalAlign=bottom;" parent="8E1WDHk8-CVribd5DDTP-39" connectable="0" vertex="1">
          <mxGeometry x="1" relative="1" as="geometry">
            <mxPoint x="-7" y="12" as="offset" />
          </mxGeometry>
        </mxCell>
      </root>
    </mxGraphModel>
  </diagram>
</mxfile>
